<mxfile host="Electron" modified="2023-12-17T06:58:25.021Z" agent="Mozilla/5.0 (X11; Linux x86_64) AppleWebKit/537.36 (KHTML, like Gecko) draw.io/22.1.2 Chrome/114.0.5735.289 Electron/25.9.4 Safari/537.36" etag="VuyVLwt8jCsJTCZf5Dxe" version="22.1.2" type="device">
  <diagram name="第1頁" id="1yQev7NfxscIZFoo149B">
    <mxGraphModel dx="1562" dy="905" grid="1" gridSize="10" guides="1" tooltips="1" connect="1" arrows="1" fold="1" page="1" pageScale="1" pageWidth="827" pageHeight="1169" math="0" shadow="0">
      <root>
        <mxCell id="0" />
        <mxCell id="1" parent="0" />
        <mxCell id="cDLdebcGRjVFAftBG-fz-2" value="&lt;font style=&quot;font-size: 18px;&quot;&gt;勞工退休基金(勞退)&lt;/font&gt;" style="rounded=1;whiteSpace=wrap;html=1;fillColor=#ffe6cc;strokeColor=#d79b00;" vertex="1" parent="1">
          <mxGeometry x="110" y="220" width="120" height="60" as="geometry" />
        </mxCell>
        <mxCell id="cDLdebcGRjVFAftBG-fz-3" value="&lt;font style=&quot;font-size: 18px;&quot;&gt;勞工保險基金(勞保)&lt;/font&gt;" style="rounded=1;whiteSpace=wrap;html=1;fillColor=#ffe6cc;strokeColor=#d79b00;" vertex="1" parent="1">
          <mxGeometry x="245" y="220" width="120" height="60" as="geometry" />
        </mxCell>
        <mxCell id="cDLdebcGRjVFAftBG-fz-4" value="&lt;font style=&quot;font-size: 18px;&quot;&gt;國民年金&lt;/font&gt;" style="rounded=1;whiteSpace=wrap;html=1;fillColor=#d5e8d4;strokeColor=#82b366;" vertex="1" parent="1">
          <mxGeometry x="380" y="220" width="120" height="60" as="geometry" />
        </mxCell>
        <mxCell id="cDLdebcGRjVFAftBG-fz-5" value="&lt;font style=&quot;font-size: 18px;&quot;&gt;公務人員退休撫恤基金(退撫)&lt;/font&gt;" style="rounded=1;whiteSpace=wrap;html=1;fillColor=#e1d5e7;strokeColor=#9673a6;" vertex="1" parent="1">
          <mxGeometry x="510" y="220" width="130" height="60" as="geometry" />
        </mxCell>
        <mxCell id="cDLdebcGRjVFAftBG-fz-6" value="&lt;font style=&quot;font-size: 24px;&quot;&gt;四大基金&lt;/font&gt;" style="swimlane;whiteSpace=wrap;html=1;fillColor=#dae8fc;strokeColor=#6c8ebf;" vertex="1" parent="1">
          <mxGeometry x="70" y="160" width="600" height="150" as="geometry" />
        </mxCell>
        <mxCell id="cDLdebcGRjVFAftBG-fz-7" value="國家發展基金(國發基金)" style="rounded=1;whiteSpace=wrap;html=1;" vertex="1" parent="1">
          <mxGeometry x="110" y="430" width="120" height="60" as="geometry" />
        </mxCell>
        <mxCell id="cDLdebcGRjVFAftBG-fz-8" value="郵政儲金與壽險儲匯金(郵匯金)" style="rounded=1;whiteSpace=wrap;html=1;" vertex="1" parent="1">
          <mxGeometry x="245" y="430" width="120" height="60" as="geometry" />
        </mxCell>
        <mxCell id="cDLdebcGRjVFAftBG-fz-9" value="國家安定基金(國安基金)" style="rounded=1;whiteSpace=wrap;html=1;" vertex="1" parent="1">
          <mxGeometry x="380" y="430" width="120" height="60" as="geometry" />
        </mxCell>
      </root>
    </mxGraphModel>
  </diagram>
</mxfile>
